<svg width="20" height="20" viewBox="0 0 20 20" fill="none" xmlns="http://www.w3.org/2000/svg"> <path fill-rule="evenodd" clip-rule="evenodd" d="M9.9468 2.52095C9.94131 2.5232 9.92126 2.5326 9.87819 2.56138C9.80787 2.60836 9.71854 2.67736 9.56513 2.79668L3.91321 7.19262C3.50746 7.5082 3.40226 7.59689 3.32918 7.6957C3.25384 7.79757 3.19771 7.91233 3.16356 8.03434C3.13043 8.15269 3.125 8.29018 3.125 8.80421V14.8333C3.125 15.3103 3.12549 15.6305 3.14563 15.8771C3.16518 16.1164 3.20008 16.2308 3.23854 16.3062C3.3384 16.5022 3.49776 16.6616 3.69376 16.7615C3.76923 16.7999 3.88363 16.8348 4.1229 16.8544C4.36947 16.8745 4.68964 16.875 5.16667 16.875H14.8333C15.3104 16.875 15.6305 16.8745 15.8771 16.8544C16.1164 16.8348 16.2308 16.7999 16.3062 16.7615C16.5022 16.6616 16.6616 16.5022 16.7615 16.3062C16.7999 16.2308 16.8348 16.1164 16.8544 15.8771C16.8745 15.6305 16.875 15.3103 16.875 14.8333V8.80421C16.875 8.29018 16.8696 8.15269 16.8364 8.03434C16.8023 7.91233 16.7462 7.79757 16.6708 7.6957C16.5977 7.59689 16.4925 7.5082 16.0868 7.19262L10.4349 2.79668C10.2815 2.67736 10.1921 2.60836 10.1218 2.56138C10.0787 2.5326 10.0587 2.5232 10.0532 2.52095C10.0183 2.51174 9.98167 2.51174 9.9468 2.52095ZM10.0516 2.52035C10.0516 2.52033 10.0523 2.52057 10.0532 2.52095ZM9.9468 2.52095C9.94774 2.52057 9.94843 2.52032 9.94841 2.52035ZM9.61887 1.31472C9.86847 1.24714 10.1315 1.24714 10.3811 1.31472C10.6689 1.39263 10.9134 1.584 11.1433 1.7639C11.1631 1.77937 11.1827 1.79476 11.2023 1.80999L16.8542 6.20593C16.8732 6.22072 16.892 6.23531 16.9106 6.24972C17.2335 6.50053 17.4875 6.69783 17.6758 6.95239C17.8416 7.1765 17.965 7.42898 18.0402 7.69741C18.1255 8.00232 18.1253 8.32396 18.125 8.73285C18.125 8.75634 18.125 8.78013 18.125 8.80421V14.8587C18.125 15.3038 18.125 15.6754 18.1002 15.9789C18.0744 16.2954 18.0184 16.5927 17.8752 16.8737C17.6555 17.3049 17.3049 17.6555 16.8737 17.8752C16.5927 18.0184 16.2955 18.0743 15.9789 18.1002C15.6754 18.125 15.3038 18.125 14.8587 18.125H5.14129C4.69617 18.125 4.32463 18.125 4.02111 18.1002C3.70454 18.0743 3.40733 18.0184 3.12627 17.8752C2.69507 17.6555 2.34449 17.3049 2.12478 16.8737C1.98158 16.5927 1.92565 16.2954 1.89978 15.9789C1.87499 15.6754 1.87499 15.3038 1.875 14.8587L1.875 8.80421C1.875 8.78012 1.87499 8.75634 1.87497 8.73284C1.87469 8.32395 1.87448 8.00232 1.95982 7.69741C2.03496 7.42897 2.15844 7.1765 2.3242 6.95239C2.51248 6.69783 2.7665 6.50053 3.08942 6.24972C3.10798 6.23531 3.12677 6.22071 3.14578 6.20593L8.7977 1.80999C8.81728 1.79476 8.83694 1.77937 8.85672 1.7639C9.0866 1.584 9.33115 1.39263 9.61887 1.31472Z" fill="#393535" fill-opacity="0.8"/> </svg>